{
  "accessors": [
    {
      "bufferView": 2,
      "componentType": 5126,
      "count": 33448,
      "max": [
        0.21725638210773468,
        0.37078019976615906,
        0.21725639700889587
      ],
      "min": [
        -0.21725641191005707,
        -0.28922000527381897,
        -0.21725639700889587
      ],
      "type": "VEC3"
    },
    {
      "bufferView": 2,
      "byteOffset": 401376,
      "componentType": 5126,
      "count": 33448,
      "max": [
        1,
        1,
        1
      ],
      "min": [
        -1,
        -1,
        -1
      ],
      "type": "VEC3"
    },
    {
      "bufferView": 1,
      "componentType": 5126,
      "count": 33448,
      "max": [
        1.0000308752059937,
        0.060000017285346985
      ],
      "min": [
        -3.0624065402662382e-05,
        -0.060000013560056686
      ],
      "type": "VEC2"
    },
    {
      "bufferView": 0,
      "componentType": 5125,
      "count": 170496,
      "max": [
        33447
      ],
      "min": [
        0
      ],
      "type": "SCALAR"
    },
    {
      "bufferView": 2,
      "byteOffset": 802752,
      "componentType": 5126,
      "count": 645,
      "max": [
        0.057820409536361694,
        1.0090270042419434,
        0.27070623636245728
      ],
      "min": [
        -0.25116035342216492,
        -0.075108088552951813,
        -0.10624042153358459
      ],
      "type": "VEC3"
    },
    {
      "bufferView": 2,
      "byteOffset": 810492,
      "componentType": 5126,
      "count": 645,
      "max": [
        0.97181689739227295,
        0.37709963321685791,
        0.95552778244018555
      ],
      "min": [
        -0.97181689739227295,
        -0.37709775567054749,
        -0.95552778244018555
      ],
      "type": "VEC3"
    },
    {
      "bufferView": 1,
      "byteOffset": 267584,
      "componentType": 5126,
      "count": 645,
      "max": [
        1.0000001192092896,
        1.0000001192092896
      ],
      "min": [
        0,
        0.5
      ],
      "type": "VEC2"
    },
    {
      "bufferView": 0,
      "byteOffset": 681984,
      "componentType": 5125,
      "count": 3072,
      "max": [
        644
      ],
      "min": [
        0
      ],
      "type": "SCALAR"
    }
  ],
  "asset": {
    "extras": {
      "author": "_simone.rizzi (https://sketchfab.com/simone_rizzi)",
      "license": "CC-BY-4.0 (http://creativecommons.org/licenses/by/4.0/)",
      "source": "https://sketchfab.com/3d-models/plastic-cup-47da7ad21a6244048e13f7d4ec1282a9",
      "title": "Plastic cup"
    },
    "generator": "Sketchfab-7.92.0",
    "version": "2.0"
  },
  "bufferViews": [
    {
      "buffer": 0,
      "byteLength": 694272,
      "byteOffset": 0,
      "name": "floatBufferViews",
      "target": 34963
    },
    {
      "buffer": 0,
      "byteLength": 272744,
      "byteOffset": 694272,
      "byteStride": 8,
      "name": "floatBufferViews",
      "target": 34962
    },
    {
      "buffer": 0,
      "byteLength": 818232,
      "byteOffset": 967016,
      "byteStride": 12,
      "name": "floatBufferViews",
      "target": 34962
    }
  ],
  "buffers": [
    {
      "byteLength": 1785248,
      "uri": "scene.bin"
    }
  ],
  "materials": [
    {
      "alphaMode": "BLEND",
      "doubleSided": true,
      "emissiveFactor": [
        0,
        0,
        0
      ],
      "name": "Material.001",
      "pbrMetallicRoughness": {
        "baseColorFactor": [
          1,
          1,
          1,
          0
        ],
        "metallicFactor": 1,
        "roughnessFactor": 0.18121189024390238
      }
    },
    {
      "doubleSided": true,
      "emissiveFactor": [
        0,
        0,
        0
      ],
      "name": "Material.003",
      "pbrMetallicRoughness": {
        "baseColorFactor": [
          0.051766289830066425,
          0.051766289830066425,
          0.051766289830066425,
          1
        ],
        "metallicFactor": 1,
        "roughnessFactor": 0
      }
    }
  ],
  "meshes": [
    {
      "primitives": [
        {
          "attributes": {
            "NORMAL": 1,
            "POSITION": 0,
            "TEXCOORD_0": 2
          },
          "indices": 3,
          "material": 0,
          "mode": 4
        }
      ]
    },
    {
      "primitives": [
        {
          "attributes": {
            "NORMAL": 5,
            "POSITION": 4,
            "TEXCOORD_0": 6
          },
          "indices": 7,
          "material": 1,
          "mode": 4
        }
      ]
    }
  ],
  "nodes": [
    {
      "children": [
        1
      ],
      "name": "RootNode (gltf orientation matrix)",
      "rotation": [
        -0.70710678118654746,
        -0,
        -0,
        0.70710678118654757
      ]
    },
    {
      "children": [
        2
      ],
      "name": "RootNode (model correction matrix)"
    },
    {
      "children": [
        3
      ],
      "name": "root"
    },
    {
      "children": [
        4
      ],
      "matrix": [
        1,
        0,
        0,
        0,
        0,
        2.2204460492503131e-16,
        1,
        0,
        0,
        -1,
        2.2204460492503131e-16,
        0,
        0,
        0,
        0,
        1
      ],
      "name": "GLTF_SceneRootNode"
    },
    {
      "children": [
        5,
        6
      ],
      "matrix": [
        1,
        0,
        0,
        0,
        0,
        1,
        0,
        0,
        0,
        0,
        1,
        0,
        0,
        -0.040780089795589447,
        0,
        1
      ],
      "name": "Bicchiere_2"
    },
    {
      "mesh": 0,
      "name": ""
    },
    {
      "mesh": 1,
      "name": ""
    }
  ],
  "scene": 0,
  "scenes": [
    {
      "name": "OSG_Scene",
      "nodes": [
        0
      ]
    }
  ]
}

