{
  "accessors": [
    {
      "bufferView": 2,
      "componentType": 5126,
      "count": 1222,
      "max": [
        0.36935544013977051,
        0.40268245339393616,
        0.4991031289100647
      ],
      "min": [
        -0.37025964260101318,
        -0.62755054235458374,
        -0.43879354000091553
      ],
      "type": "VEC3"
    },
    {
      "bufferView": 2,
      "byteOffset": 14664,
      "componentType": 5126,
      "count": 1222,
      "max": [
        0.99976497888565063,
        0.96887409687042236,
        1
      ],
      "min": [
        -0.99983507394790649,
        -0.99477314949035645,
        -0.9999738335609436
      ],
      "type": "VEC3"
    },
    {
      "bufferView": 3,
      "componentType": 5126,
      "count": 1222,
      "max": [
        1,
        0.99999397993087769,
        0.82070189714431763,
        1
      ],
      "min": [
        -1,
        -0.99998581409454346,
        -0.97725206613540649,
        -1
      ],
      "type": "VEC4"
    },
    {
      "bufferView": 1,
      "componentType": 5126,
      "count": 1222,
      "max": [
        0.4588741660118103,
        0.90259885787963867
      ],
      "min": [
        0.1955590546131134,
        0.097346305847167969
      ],
      "type": "VEC2"
    },
    {
      "bufferView": 0,
      "componentType": 5125,
      "count": 6336,
      "max": [
        1221
      ],
      "min": [
        0
      ],
      "type": "SCALAR"
    }
  ],
  "asset": {
    "extras": {
      "author": "abdillaamy (https://sketchfab.com/abdillaamy)",
      "license": "CC-BY-4.0 (http://creativecommons.org/licenses/by/4.0/)",
      "source": "https://sketchfab.com/models/e72f3887c94a414286bf485f7139488e",
      "title": "Plastic Fork"
    },
    "generator": "Sketchfab-3.18.7",
    "version": "2.0"
  },
  "bufferViews": [
    {
      "buffer": 0,
      "byteLength": 25344,
      "byteOffset": 0,
      "name": "floatBufferViews",
      "target": 34963
    },
    {
      "buffer": 0,
      "byteLength": 9776,
      "byteOffset": 25344,
      "byteStride": 8,
      "name": "floatBufferViews",
      "target": 34962
    },
    {
      "buffer": 0,
      "byteLength": 29328,
      "byteOffset": 35120,
      "byteStride": 12,
      "name": "floatBufferViews",
      "target": 34962
    },
    {
      "buffer": 0,
      "byteLength": 19552,
      "byteOffset": 64448,
      "byteStride": 16,
      "name": "floatBufferViews",
      "target": 34962
    }
  ],
  "buffers": [
    {
      "byteLength": 84000,
      "uri": "scene.bin"
    }
  ],
  "images": [
    {
      "uri": "textures/ForkTexture_baseColor.jpeg"
    }
  ],
  "materials": [
    {
      "doubleSided": true,
      "emissiveFactor": [
        0,
        0,
        0
      ],
      "name": "ForkTexture",
      "pbrMetallicRoughness": {
        "baseColorFactor": [
          1,
          1,
          1,
          1
        ],
        "baseColorTexture": {
          "index": 0,
          "texCoord": 0
        },
        "metallicFactor": 0,
        "roughnessFactor": 0.2198863636
      }
    }
  ],
  "meshes": [
    {
      "name": "PlasticFork__HighRes1_ForkTexture_0",
      "primitives": [
        {
          "attributes": {
            "NORMAL": 1,
            "POSITION": 0,
            "TANGENT": 2,
            "TEXCOORD_0": 3
          },
          "indices": 4,
          "material": 0,
          "mode": 4
        }
      ]
    }
  ],
  "nodes": [
    {
      "children": [
        1
      ],
      "name": "RootNode (gltf orientation matrix)",
      "rotation": [
        -0.70710678118654746,
        -0,
        -0,
        0.70710678118654757
      ]
    },
    {
      "children": [
        2
      ],
      "name": "RootNode (model correction matrix)"
    },
    {
      "children": [
        3
      ],
      "matrix": [
        1,
        0,
        0,
        0,
        0,
        0,
        1,
        0,
        0,
        -1,
        0,
        0,
        0,
        0,
        0,
        1
      ],
      "name": "e1958d03e57146c09f0b255d33e759e8.fbx"
    },
    {
      "children": [
        4
      ],
      "name": "RootNode"
    },
    {
      "children": [
        5
      ],
      "matrix": [
        2,
        0,
        0,
        0,
        0,
        1,
        0,
        0,
        0,
        0,
        10,
        0,
        0,
        0.59740555286407471,
        0,
        1
      ],
      "name": "PlasticFork__HighRes1"
    },
    {
      "mesh": 0,
      "name": "PlasticFork__HighRes1_ForkTexture_0"
    }
  ],
  "samplers": [
    {
      "magFilter": 9729,
      "minFilter": 9987,
      "wrapS": 10497,
      "wrapT": 10497
    }
  ],
  "scene": 0,
  "scenes": [
    {
      "name": "OSG_Scene",
      "nodes": [
        0
      ]
    }
  ],
  "textures": [
    {
      "sampler": 0,
      "source": 0
    }
  ]
}

